<?xml version="1.0" encoding="UTF-8"?>
<svg width="100px" height="100px" viewBox="0 0 100 100" version="1.1" xmlns="http://www.w3.org/2000/svg" xmlns:xlink="http://www.w3.org/1999/xlink">
    <!-- Generator: Sketch 50.2 (55047) - http://www.bohemiancoding.com/sketch -->
    <title>Star</title>
    <desc>Created with Sketch.</desc>
    <defs></defs>
    <g id="Page-1" stroke="none" stroke-width="1" fill="none" fill-rule="evenodd">
        <g id="iPhone-8-Plus" transform="translate(-124.000000, -285.000000)" fill="#F5A623">
            <polygon id="Star" points="174 381.127232 164.812524 384.148655 157.336922 378.012363 147.678392 377.510857 142.924285 369.088436 134.099139 365.131732 132.708595 355.560677 125.908718 348.68315 128.069538 339.256084 124.213291 330.386582 129.633645 322.376684 129.241835 312.713082 137.189674 307.202132 140.315218 298.049554 149.717141 295.781837 155.937917 288.376389 165.524143 289.658172 174 285 182.475857 289.658172 192.062083 288.376389 198.282859 295.781837 207.684782 298.049554 210.810326 307.202132 218.758165 312.713082 218.366355 322.376684 223.786709 330.386582 219.930462 339.256084 222.091282 348.68315 215.291405 355.560677 213.900861 365.131732 205.075715 369.088436 200.321608 377.510857 190.663078 378.012363 183.187476 384.148655"></polygon>
        </g>
    </g>
</svg>