<?xml version="1.0" encoding="UTF-8"?>
<svg width="13px" height="21px" viewBox="0 0 13 21" version="1.1" xmlns="http://www.w3.org/2000/svg" xmlns:xlink="http://www.w3.org/1999/xlink">
    <!-- Generator: Sketch 47.1 (45422) - http://www.bohemiancoding.com/sketch -->
    <title>Arrow</title>
    <desc>Created with Sketch.</desc>
    <defs></defs>
    <g id="Symbols" stroke="none" stroke-width="1" fill="none" fill-rule="evenodd">
        <g id="分類導航" transform="translate(-12.000000, -10.000000)" fill="#3C7AD2">
            <g id="arrow" transform="translate(12.000000, 10.000000)">
                <path d="M6.10660172,15.1066017 L6.10660172,4.60660172 C6.10660172,3.77817459 5.43502884,3.10660172 4.60660172,3.10660172 L4.60660172,3.10660172 L4.60660172,3.10660172 C3.77817459,3.10660172 3.10660172,3.77817459 3.10660172,4.60660172 L3.10660172,4.60660172 L3.10660172,16.6066017 C3.10660172,17.0208153 3.27449494,17.3958153 3.54594155,17.6672619 C3.81738816,17.9387085 4.19238816,18.1066017 4.60660172,18.1066017 L16.6066017,18.1066017 C17.4350288,18.1066017 18.1066017,17.4350288 18.1066017,16.6066017 C18.1066017,15.7781746 17.4350288,15.1066017 16.6066017,15.1066017 L6.10660172,15.1066017 Z" id="Combined-Shape" transform="translate(10.606602, 10.606602) rotate(45.000000) translate(-10.606602, -10.606602) "></path>
            </g>
        </g>
    </g>
</svg>