<?xml version="1.0" encoding="UTF-8"?>
<svg width="12px" height="12px" viewBox="0 0 12 12" version="1.1" xmlns="http://www.w3.org/2000/svg" xmlns:xlink="http://www.w3.org/1999/xlink">
    <!-- Generator: Sketch 47.1 (45422) - http://www.bohemiancoding.com/sketch -->
    <title>Shape</title>
    <desc>Created with Sketch.</desc>
    <defs></defs>
    <g id="Page-1" stroke="none" stroke-width="1" fill="none" fill-rule="evenodd">
        <g id="整頁項目" transform="translate(-334.000000, -1439.000000)" fill-rule="nonzero" fill="#FFFFFF">
            <g id="更多視頻" transform="translate(0.000000, 1421.000000)">
                <path d="M340,18 C336.686389,18 334,20.6863892 334,24 C334,27.3144003 336.686389,30 340,30 C343.3144,30 346,27.3144003 346,24 C346,20.6863892 343.3144,18 340,18 Z M341.880007,24.284005 L339.285619,26.8783926 C339.129616,27.0335795 338.876007,27.0335795 338.72003,26.8783926 C338.564027,26.7223899 338.564027,26.4679907 338.72003,26.3128037 L341.032834,24 L338.72003,21.6871963 C338.564027,21.5311935 338.564027,21.2775838 338.72003,21.1216074 C338.876033,20.965631 339.129643,20.9656047 339.285619,21.1216074 L341.880007,23.715995 C341.960008,23.7943911 341.997614,23.8976035 341.996798,24 C341.996798,24.1032123 341.958403,24.2056089 341.880007,24.284005 Z" id="Shape"></path>
            </g>
        </g>
    </g>
</svg>