<?xml version="1.0" encoding="UTF-8"?>
<svg width="12px" height="12px" viewBox="0 0 12 12" version="1.1" xmlns="http://www.w3.org/2000/svg" xmlns:xlink="http://www.w3.org/1999/xlink">
    <!-- Generator: Sketch 47.1 (45422) - http://www.bohemiancoding.com/sketch -->
    <title>error-icon</title>
    <desc>Created with Sketch.</desc>
    <defs></defs>
    <g id="Page-1" stroke="none" stroke-width="1" fill="none" fill-rule="evenodd">
        <g id="Menu" transform="translate(-227.000000, -552.000000)" fill="#FF274B">
            <path d="M234.414214,558 L235.828427,556.585786 C236.218951,556.195262 236.218951,555.562097 235.828427,555.171573 C235.437903,554.781049 234.804738,554.781049 234.414214,555.171573 L234.414214,555.171573 L233,556.585786 L231.585786,555.171573 C231.195262,554.781049 230.562097,554.781049 230.171573,555.171573 C229.781049,555.562097 229.781049,556.195262 230.171573,556.585786 L231.585786,558 L230.171573,559.414214 C229.781049,559.804738 229.781049,560.437903 230.171573,560.828427 C230.562097,561.218951 231.195262,561.218951 231.585786,560.828427 L233,559.414214 L234.414214,560.828427 C234.804738,561.218951 235.437903,561.218951 235.828427,560.828427 C236.218951,560.437903 236.218951,559.804738 235.828427,559.414214 L234.414214,558 Z M233,564 C229.686292,564 227,561.313708 227,558 C227,554.686292 229.686292,552 233,552 C236.313708,552 239,554.686292 239,558 C239,561.313708 236.313708,564 233,564 Z" id="error-icon"></path>
        </g>
    </g>
</svg>