<?xml version="1.0" encoding="UTF-8"?>
<svg width="26px" height="26px" viewBox="0 0 26 26" version="1.1" xmlns="http://www.w3.org/2000/svg" xmlns:xlink="http://www.w3.org/1999/xlink">
    <!-- Generator: Sketch 47.1 (45422) - http://www.bohemiancoding.com/sketch -->
    <title>footer__nav-review</title>
    <desc>Created with Sketch.</desc>
    <defs>
        <linearGradient x1="50%" y1="0%" x2="50%" y2="100%" id="linearGradient-1">
            <stop stop-color="#3DC0D1" offset="0%"></stop>
            <stop stop-color="#3C7AD2" offset="100%"></stop>
        </linearGradient>
    </defs>
    <g id="Symbols" stroke="none" stroke-width="1" fill="none" fill-rule="evenodd">
        <g id="Nav-bottom" transform="translate(-325.000000, -14.000000)" fill-rule="nonzero" fill="url(#linearGradient-1)">
            <g id="Group-4" transform="translate(325.000000, 14.000000)">
                <path d="M16.6716906,6.99491556 L4.27365172,7.02033775 C3.08607227,7.02033775 2.12002905,7.98638097 2.12002905,9.17396041 L2.12002905,16.851825 C2.12002905,18.0394044 3.08607227,19.0050844 4.27365172,19.0050844 L6.47811876,19.0050844 L6.47811876,22.6368259 C6.47811876,22.7868168 6.57036499,22.9215544 6.71055021,22.9756673 C6.75304158,22.9920102 6.79734883,23 6.8412929,23 C6.94152896,23 7.03994916,22.958235 7.11004177,22.8812421 L10.6342836,19.0043581 L16.6724169,18.9796622 C17.8599964,18.9796622 18.8260396,18.013619 18.8260396,16.8264028 L18.8260396,9.14853822 C18.8260396,7.96095878 17.8599964,6.99491556 16.6716906,6.99491556 Z M5.75177047,10.626657 L10.4730343,10.626657 C10.6738696,10.626657 10.8362085,10.789359 10.8362085,10.9898311 C10.8362085,11.1903033 10.6738696,11.3530053 10.4730343,11.3530053 L5.75177047,11.3530053 C5.55093517,11.3530053 5.38859633,11.1903033 5.38859633,10.9898311 C5.38859633,10.789359 5.55093517,10.626657 5.75177047,10.626657 Z M15.1942982,15.711095 L5.75177047,15.711095 C5.55093517,15.711095 5.38859633,15.548393 5.38859633,15.3479208 C5.38859633,15.1474487 5.55093517,14.9847467 5.75177047,14.9847467 L15.1942982,14.9847467 C15.3951335,14.9847467 15.5574723,15.1474487 15.5574723,15.3479208 C15.5574723,15.548393 15.3951335,15.711095 15.1942982,15.711095 Z M15.1942982,13.5320501 L5.75177047,13.5320501 C5.55093517,13.5320501 5.38859633,13.3693481 5.38859633,13.168876 C5.38859633,12.9684038 5.55093517,12.8057018 5.75177047,12.8057018 L15.1942982,12.8057018 C15.3951335,12.8057018 15.5574723,12.9684038 15.5574723,13.168876 C15.5574723,13.3693481 15.3951335,13.5320501 15.1942982,13.5320501 Z M21.7575813,3.02542219 C22.9444344,3.02542219 23.9104776,3.99146541 23.9104776,5.17904485 L23.9104776,12.8572726 C23.9104776,14.0444888 22.9444344,15.0105321 21.7568549,15.0105321 L21.3682586,15.0105321 L21.3682586,18.6422735 C21.3682586,18.7922644 21.2760123,18.927002 21.1358271,18.9811149 C21.0933358,18.9974578 21.0490285,19.0054476 21.0050844,19.0054476 C20.9048484,19.0054476 20.8064282,18.9636826 20.7363356,18.8866897 L19.5523879,17.5843472 L19.5523879,16.8264028 L19.5523879,16.8006174 L19.5523879,9.14853822 C19.5523879,7.5603777 18.2598511,6.26856728 16.6702379,6.26856728 L7.20446704,6.28817868 L7.20446704,5.15362266 C7.20446704,3.96604322 8.17051026,3 9.3580897,3 L21.7575813,3.02542219 Z" id="Combined-Shape"></path>
            </g>
        </g>
    </g>
</svg>