<?xml version="1.0" encoding="UTF-8"?>
<svg width="26px" height="26px" viewBox="0 0 26 26" version="1.1" xmlns="http://www.w3.org/2000/svg" xmlns:xlink="http://www.w3.org/1999/xlink">
    <!-- Generator: Sketch 47.1 (45422) - http://www.bohemiancoding.com/sketch -->
    <title>footer__nav-register</title>
    <desc>Created with Sketch.</desc>
    <defs>
        <linearGradient x1="50%" y1="0%" x2="50%" y2="100%" id="linearGradient-1">
            <stop stop-color="#3DC0D1" offset="0%"></stop>
            <stop stop-color="#3C7AD2" offset="100%"></stop>
        </linearGradient>
    </defs>
    <g id="Symbols" stroke="none" stroke-width="1" fill="none" fill-rule="evenodd">
        <g id="Nav-bottom" transform="translate(-100.000000, -14.000000)" fill-rule="nonzero" fill="url(#linearGradient-1)">
            <g id="Group" transform="translate(100.000000, 14.000000)">
                <path d="M5.47086276,7.84130393 L5.47086276,20.5338347 L18.1633935,20.5338347 L18.1633935,14.9720448 C18.7928529,14.5586685 19.3659427,14.1265024 19.9108478,13.661454 C20.0423766,13.55811 20.3007368,13.3467244 20.6342563,13.0272973 L20.6342563,21.7645686 C20.6342563,22.4457 20.0799563,23 19.3988249,23 L4.23543138,23 C3.55430001,23 3,22.4457 3,21.7645686 L3,6.60587255 C3,5.92474118 3.55430001,5.37044116 4.23543138,5.37044116 L8.35979926,5.37044116 C7.90884332,6.14082423 7.52365179,6.96757679 7.1995272,7.84130393 L5.47086276,7.84130393 Z M25.608864,0.189145296 C25.1860928,0.11868343 24.6693725,0.0717088526 24.0821903,0.0388266486 L24.0821903,0.0388266486 L23.9318716,0.0341291909 C23.8426199,0.0294317331 23.7533682,0.0247342754 23.6594191,0.0200368177 L23.6594191,0.0200368177 L23.6453267,0.0200368177 L23.4198487,0.0106419022 L23.4151513,0.0106419022 C19.328363,-0.125584372 16.4817037,1.09105718 16.4817037,1.09105718 L16.4817037,1.09105718 C12.606301,2.66000806 9.93814506,5.46439032 8.73559588,9.7437743 C8.34570689,11.1295243 8.46784079,12.5716439 8.66513401,13.9902761 C8.6886213,14.1218049 8.75908317,14.3144007 9.17245945,14.051343 L9.17245945,14.051343 C9.99451455,11.8059582 11.3661722,9.70619464 12.99619,7.89767342 C15.058374,5.61470897 17.3742206,3.79679283 20.2443673,2.6553106 C20.7704826,2.443925 21.2731105,2.28421144 21.8086207,2.10101059 C21.8274106,2.14798517 21.7851334,2.19495974 21.7428563,2.21374957 C21.7287639,2.21844703 21.7099741,2.22314449 21.6958817,2.22784195 C20.169208,2.81502416 18.8069452,3.6887513 17.5386317,4.71279708 C15.4012884,6.44146153 13.611557,8.48955309 12.0473036,10.7396353 C10.2340849,13.3467244 8.777873,16.1323168 7.82428908,19.1668745 C7.82428908,19.1668745 7.6551806,19.9231652 8.22827045,19.3735626 L10.7555027,16.2309634 C10.7836874,16.1745939 10.8212671,16.1323168 10.8635442,16.0994346 C10.9152163,16.05246 10.9809807,16.0195778 11.0608375,15.9913931 C12.2117146,15.559227 13.3766841,15.1646405 14.494679,14.6573151 C15.9978655,13.9761837 17.3789181,13.1259439 18.609652,12.0690159 C18.7458783,11.9656718 20.1128385,10.8993489 21.5502605,8.69154377 C21.5737478,8.66335903 21.5972351,8.63047682 21.616025,8.59289716 C21.6254199,8.57880479 21.6348148,8.56001496 21.6442097,8.54592259 C21.9918216,7.99632003 22.3441309,7.38095307 22.6870453,6.69512424 L19.7887139,6.30053779 C19.7887139,6.30053779 23.0675394,5.83548948 23.5513775,4.77386403 C23.5795623,4.71749454 23.6124445,4.61884793 23.6359318,4.55778098 C23.8895945,3.98469114 24.1479547,3.35053434 24.4344996,2.82441908 L24.4344996,2.82441908 C24.5237513,2.55196653 25.1766979,1.39169447 25.8437369,0.710563103 C26.0034505,0.536757167 25.8484344,0.226724958 25.608864,0.189145296 Z" id="Shape"></path>
            </g>
        </g>
    </g>
</svg>