<?xml version="1.0" encoding="UTF-8"?>
<svg width="26px" height="26px" viewBox="0 0 26 26" version="1.1" xmlns="http://www.w3.org/2000/svg" xmlns:xlink="http://www.w3.org/1999/xlink">
    <!-- Generator: Sketch 47.1 (45422) - http://www.bohemiancoding.com/sketch -->
    <title>footer__nav-share</title>
    <desc>Created with Sketch.</desc>
    <defs>
        <linearGradient x1="50%" y1="0%" x2="50%" y2="100%" id="linearGradient-1">
            <stop stop-color="#3DC0D1" offset="0%"></stop>
            <stop stop-color="#3C7AD2" offset="100%"></stop>
        </linearGradient>
    </defs>
    <g id="Symbols" stroke="none" stroke-width="1" fill="none" fill-rule="evenodd">
        <g id="Nav-bottom" transform="translate(-250.000000, -14.000000)" fill-rule="nonzero" fill="url(#linearGradient-1)">
            <g id="Group-3" transform="translate(250.000000, 14.000000)">
                <path d="M25.7512765,8.16938823 C25.9169241,8.33494407 25.9999542,8.53144706 26,8.75816365 C26,8.98506363 25.9169699,9.18124569 25.7513224,9.3471683 L20.7249079,14.3737662 C20.5676963,14.5394596 20.3712392,14.6223063 20.1355823,14.6223063 C20.0310955,14.6223063 19.9218864,14.6006203 19.8085969,14.5570192 C19.4681323,14.4085646 19.2980376,14.1512676 19.2980376,13.7844406 L19.2980376,11.2712563 L17.2034422,11.2712563 C14.3849126,11.2712563 12.4738453,11.8429305 11.4701488,12.9860956 C10.4317914,14.181527 10.1088406,16.245542 10.5014798,19.1776821 C10.5276588,19.3784948 10.4404566,19.5265827 10.2397814,19.6226335 C10.1698638,19.6401473 10.117735,19.6486749 10.0826616,19.6486749 C9.94310136,19.6486749 9.82967429,19.5920072 9.74242623,19.4785802 C9.65522402,19.3564879 9.56343704,19.2209164 9.46747792,19.0728285 C9.37147296,18.9243739 9.19917752,18.6256765 8.95049991,18.1762779 C8.70177646,17.726971 8.48569652,17.2926563 8.30248935,16.8740673 C8.11923632,16.4551116 7.95125056,15.9577564 7.79853207,15.3819558 C7.64585942,14.8057885 7.56938555,14.2735891 7.56938555,13.7847157 C7.56938555,13.357324 7.58465282,12.9601459 7.61518735,12.5936398 C7.64572188,12.2272255 7.70674509,11.8345863 7.79853207,11.4156764 C7.89022735,10.9968581 8.01236547,10.61293 8.16494642,10.2637544 C8.31780246,9.91467041 8.52274142,9.55912195 8.78031347,9.19701728 C9.03774798,8.83486675 9.33653706,8.51191596 9.67700165,8.22830245 C10.0174204,7.94464309 10.4297282,7.676251 10.913971,7.42326371 C11.3983055,7.17018473 11.9415542,6.95846032 12.5437171,6.78845726 C13.1458342,6.61813327 13.8418014,6.48512927 14.6314812,6.389216 C15.4210693,6.29325688 16.2786494,6.2452544 17.2035798,6.2452544 L19.2980376,6.2452544 L19.2980376,3.73184083 C19.2980376,3.36533479 19.4682699,3.10790028 19.8087345,2.95949146 C19.922024,2.91598205 20.0314165,2.89415857 20.1357198,2.89415857 C20.3624364,2.89415857 20.5590311,2.97700526 20.7250454,3.14283618 L25.7512765,8.16938823 Z M22.3740476,15.4602178 C22.5574381,15.5388465 22.6490876,15.6652943 22.6491334,15.8397904 L22.6491334,19.2300401 C22.6491334,20.2685809 22.2804267,21.1564663 21.5429674,21.8938798 C20.8055539,22.6312933 19.9174851,23 18.8791735,23 L7.98847885,23 C6.95002976,23 6.06205264,22.6312933 5.32463917,21.8938798 C4.58727154,21.1564663 4.21856481,20.268535 4.21856481,19.2300401 L4.21856481,8.33952883 C4.21856481,7.30107975 4.58727154,6.41310262 5.32459332,5.67578085 C6.06200679,4.93841322 6.94998391,4.56970649 7.988433,4.56970649 L11.3261872,4.56970649 C11.4397518,4.56970649 11.5377282,4.61115276 11.6206666,4.6938619 C11.703605,4.77693783 11.7450054,4.87491424 11.7450054,4.9883413 C11.7450054,5.22408988 11.6315783,5.3636501 11.4046783,5.40720536 C10.7325978,5.63405949 10.1524875,5.89594122 9.66375168,6.19271301 C9.57654946,6.22755721 9.50663181,6.24511686 9.45431965,6.24511686 L7.98824961,6.24511686 C7.41217399,6.24511686 6.91912845,6.45010167 6.5090213,6.86030052 C6.09882244,7.27045352 5.89383764,7.76331567 5.89383764,8.33929959 L5.89383764,19.2301777 C5.89383764,19.8061616 6.09882244,20.2987945 6.5090213,20.7092226 C6.9191743,21.1193756 7.41221984,21.3244521 7.98824961,21.3244521 L18.8789443,21.3244521 C19.4547907,21.3244521 19.9480654,21.1193756 20.3581726,20.7092226 C20.7684631,20.2987945 20.9732187,19.8061157 20.9732187,19.2301777 L20.9732187,16.4287034 C20.9732187,16.2628724 21.0515265,16.1364246 21.2089214,16.0492224 C21.4531977,15.9359329 21.6890379,15.77432 21.9158921,15.5648879 C22.0553606,15.425236 22.2078499,15.3901167 22.3740476,15.4602178 Z" id="Combined-Shape"></path>
            </g>
        </g>
    </g>
</svg>