<?xml version="1.0" encoding="UTF-8"?>
<svg width="22px" height="22px" viewBox="0 0 22 22" version="1.1" xmlns="http://www.w3.org/2000/svg" xmlns:xlink="http://www.w3.org/1999/xlink">
    <!-- Generator: Sketch 47.1 (45422) - http://www.bohemiancoding.com/sketch -->
    <title>King</title>
    <desc>Created with Sketch.</desc>
    <defs></defs>
    <g id="Symbols" stroke="none" stroke-width="1" fill="none" fill-rule="evenodd">
        <g id="搜尋框" transform="translate(-243.000000, -4.000000)" fill-rule="nonzero" fill="#FFFFFF">
            <path d="M264.634101,23.0051641 C264.69278,22.9442773 264.75137,22.8830469 264.79801,22.8106875 C265.044544,22.4280078 265.066834,21.9590898 264.857002,21.5562578 L264.203963,20.3024297 C263.992207,19.8958164 263.628313,19.5930586 263.179153,19.449543 L260.106736,18.4657305 C259.61501,18.3079922 259.078837,18.3768281 258.638898,18.6304727 L258.127656,17.1581055 C258.48582,16.5272383 258.699725,15.8120664 258.699725,15.0429687 C258.699725,12.5077266 258.699725,13.0112344 258.699725,10.4882812 L249.300259,10.4882812 C249.300259,13.0087422 249.300259,12.5051484 249.300259,15.0429687 C249.300259,15.8120664 249.514164,16.5272383 249.872329,17.1581484 L249.360998,18.6306875 C248.920476,18.3772578 248.384975,18.3098398 247.892577,18.466418 L244.820832,19.4495859 C244.371716,19.5931016 244.007823,19.8958594 243.796021,20.3024727 L243.142982,21.5569023 C242.93315,21.9590898 242.955485,22.4280078 243.201975,22.8107305 C243.248749,22.8831758 243.307428,22.9445352 243.366108,23.0054219 L243.210569,23.4545742 C242.774926,24.7051797 243.741057,26 245.120451,26 L262.879534,26 C264.258704,26 265.224656,24.7053516 264.790132,23.4552188 L264.634101,23.0051641 Z M250.873238,18.3502734 C251.833729,19.1837812 252.832042,19.5546875 253.999992,19.5546875 C255.150845,19.5546875 256.156051,19.1927617 257.126747,18.3502734 L257.486031,19.3851328 L254.947906,21.0818398 C254.664087,20.9349297 254.34446,20.84375 253.999992,20.84375 C253.655524,20.84375 253.335898,20.9349297 253.052079,21.0818398 L250.513954,19.3851328 L250.873238,18.3502734 Z M254.671383,22.7773437 C254.671383,23.1329531 254.370421,23.421875 253.999992,23.421875 C253.629564,23.421875 253.328602,23.1329531 253.328602,22.7773437 C253.328602,22.4217344 253.629564,22.1328125 253.999992,22.1328125 C254.370421,22.1328125 254.671383,22.4217344 254.671383,22.7773437 Z M262.879534,24.7109375 L253.999992,24.7109375 L245.120451,24.7109375 C244.661175,24.7109375 244.338818,24.2800039 244.484465,23.861832 L244.637005,23.421875 L252.109491,23.421875 C252.387581,24.1704766 253.125842,24.7109375 253.999992,24.7109375 C254.874143,24.7109375 255.612404,24.1704766 255.890494,23.421875 L263.363159,23.421875 L263.516191,23.8624766 C263.660182,24.278543 263.339973,24.7109375 262.879534,24.7109375 Z M258.028335,4 C258.399435,4 258.699725,4.28827734 258.699725,4.64453125 C258.699725,7.22334375 258.699725,5.12548047 258.699725,9.19921875 L249.300259,9.19921875 C249.300259,5.12715625 249.300259,7.22257031 249.300259,4.64453125 C249.300259,4.28827734 249.60055,4 249.97165,4 C250.34275,4 250.64304,4.28827734 250.64304,4.64453125 L250.64304,5.5351875 L252.524769,6.43839062 L253.328602,5.66671484 L253.328602,4.64453125 C253.328602,4.28827734 253.628893,4 253.999992,4 C254.371092,4 254.671383,4.28827734 254.671383,4.64453125 L254.671383,5.66671484 L255.475216,6.43843359 L257.356945,5.5351875 L257.356945,4.64453125 C257.356945,4.28827734 257.657235,4 258.028335,4 Z" id="King"></path>
        </g>
    </g>
</svg>