<?xml version="1.0" encoding="UTF-8"?>
<svg width="25px" height="25px" viewBox="0 0 25 25" version="1.1" xmlns="http://www.w3.org/2000/svg" xmlns:xlink="http://www.w3.org/1999/xlink">
    <!-- Generator: Sketch 47.1 (45422) - http://www.bohemiancoding.com/sketch -->
    <title>Oval 3</title>
    <desc>Created with Sketch.</desc>
    <defs>
        <linearGradient x1="50%" y1="100%" x2="50%" y2="0%" id="linearGradient-1">
            <stop stop-color="#A97FFF" offset="0%"></stop>
            <stop stop-color="#6699FF" offset="100%"></stop>
        </linearGradient>
    </defs>
    <g id="Page-1" stroke="none" stroke-width="1" fill="none" fill-rule="evenodd">
        <g id="播放介面" transform="translate(-153.000000, -1000.000000)" fill="url(#linearGradient-1)">
            <g id="讀取視頻" transform="translate(0.000000, 988.000000)">
                <path d="M165.5,17 C164.119288,17 163,15.8807119 163,14.5 C163,13.1192881 164.119288,12 165.5,12 C166.880712,12 168,13.1192881 168,14.5 C168,15.8807119 166.880712,17 165.5,17 Z M170.732233,19.267767 C169.755922,18.2914562 169.755922,16.7085438 170.732233,15.732233 C171.708544,14.7559223 173.291456,14.7559223 174.267767,15.732233 C175.244078,16.7085438 175.244078,18.2914562 174.267767,19.267767 C173.291456,20.2440777 171.708544,20.2440777 170.732233,19.267767 Z M173,24.5 C173,23.1192881 174.119288,22 175.5,22 C176.880712,22 178,23.1192881 178,24.5 C178,25.8807119 176.880712,27 175.5,27 C174.119288,27 173,25.8807119 173,24.5 Z M170.732233,29.732233 C171.708544,28.7559223 173.291456,28.7559223 174.267767,29.732233 C175.244078,30.7085438 175.244078,32.2914562 174.267767,33.267767 C173.291456,34.2440777 171.708544,34.2440777 170.732233,33.267767 C169.755922,32.2914562 169.755922,30.7085438 170.732233,29.732233 Z M165.5,32 C166.880712,32 168,33.1192881 168,34.5 C168,35.8807119 166.880712,37 165.5,37 C164.119288,37 163,35.8807119 163,34.5 C163,33.1192881 164.119288,32 165.5,32 Z M160.267767,29.732233 C161.244078,30.7085438 161.244078,32.2914562 160.267767,33.267767 C159.291456,34.2440777 157.708544,34.2440777 156.732233,33.267767 C155.755922,32.2914562 155.755922,30.7085438 156.732233,29.732233 C157.708544,28.7559223 159.291456,28.7559223 160.267767,29.732233 Z M158,24.5 C158,25.8807119 156.880712,27 155.5,27 C154.119288,27 153,25.8807119 153,24.5 C153,23.1192881 154.119288,22 155.5,22 C156.880712,22 158,23.1192881 158,24.5 Z M160.267767,19.267767 C159.291456,20.2440777 157.708544,20.2440777 156.732233,19.267767 C155.755922,18.2914562 155.755922,16.7085438 156.732233,15.732233 C157.708544,14.7559223 159.291456,14.7559223 160.267767,15.732233 C161.244078,16.7085438 161.244078,18.2914562 160.267767,19.267767 Z" id="Oval-3"></path>
            </g>
        </g>
    </g>
</svg>