<?xml version="1.0" encoding="UTF-8"?>
<svg width="16px" height="14px" viewBox="0 0 16 14" version="1.1" xmlns="http://www.w3.org/2000/svg" xmlns:xlink="http://www.w3.org/1999/xlink">
    <!-- Generator: Sketch 47.1 (45422) - http://www.bohemiancoding.com/sketch -->
    <title>MenuIcon</title>
    <desc>Created with Sketch.</desc>
    <defs></defs>
    <g id="Page-1" stroke="none" stroke-width="1" fill="none" fill-rule="evenodd">
        <g id="index" transform="translate(-344.000000, -60.000000)" fill="#FFFFFF">
            <g id="Top">
                <path d="M345,62 C344.447715,62 344,61.5522847 344,61 C344,60.4477153 344.447715,60 345,60 C345.552285,60 346,60.4477153 346,61 C346,61.5522847 345.552285,62 345,62 Z M349,60 L359,60 C359.552285,60 360,60.4477153 360,61 L360,61 C360,61.5522847 359.552285,62 359,62 L349,62 C348.447715,62 348,61.5522847 348,61 L348,61 L348,61 C348,60.4477153 348.447715,60 349,60 Z M345,68 C344.447715,68 344,67.5522847 344,67 C344,66.4477153 344.447715,66 345,66 C345.552285,66 346,66.4477153 346,67 C346,67.5522847 345.552285,68 345,68 Z M349,66 L359,66 C359.552285,66 360,66.4477153 360,67 C360,67.5522847 359.552285,68 359,68 L349,68 C348.447715,68 348,67.5522847 348,67 C348,66.4477153 348.447715,66 349,66 Z M345,74 C344.447715,74 344,73.5522847 344,73 C344,72.4477153 344.447715,72 345,72 C345.552285,72 346,72.4477153 346,73 C346,73.5522847 345.552285,74 345,74 Z M349,72 L359,72 C359.552285,72 360,72.4477153 360,73 C360,73.5522847 359.552285,74 359,74 L349,74 C348.447715,74 348,73.5522847 348,73 C348,72.4477153 348.447715,72 349,72 Z" id="MenuIcon"></path>
            </g>
        </g>
    </g>
</svg>