<?xml version="1.0" encoding="UTF-8"?>
<svg width="22px" height="22px" viewBox="0 0 22 22" version="1.1" xmlns="http://www.w3.org/2000/svg" xmlns:xlink="http://www.w3.org/1999/xlink">
    <!-- Generator: Sketch 47.1 (45422) - http://www.bohemiancoding.com/sketch -->
    <title>menu_icon-8</title>
    <desc>Created with Sketch.</desc>
    <defs>
        <linearGradient x1="50%" y1="0%" x2="50%" y2="100%" id="linearGradient-1">
            <stop stop-color="#3DC0D1" offset="0%"></stop>
            <stop stop-color="#3C7AD2" offset="100%"></stop>
        </linearGradient>
    </defs>
    <g id="Page-1" stroke="none" stroke-width="1" fill="none" fill-rule="evenodd">
        <g id="Menu" transform="translate(-52.000000, -537.000000)" fill-rule="nonzero" fill="url(#linearGradient-1)">
            <g id="Group-7" transform="translate(15.000000, 537.000000)">
                <path d="M53.4375,14.6666667 C52.62145,14.6666667 51.8719,14.9521778 51.2712625,15.4273778 L45.0734625,11.6001111 C45.104575,11.4043111 45.125,11.2046 45.125,11 C45.125,10.7949111 45.104575,10.5956889 45.0734625,10.3996444 L51.2712625,6.57237778 C51.8719,7.04806667 52.62145,7.33333333 53.4375,7.33333333 C55.4047125,7.33333333 57,5.6914 57,3.66666667 C57,1.64193333 55.4047125,0 53.4375,0 C51.4702875,0 49.875,1.64193333 49.875,3.66666667 C49.875,3.87126667 49.895425,4.07097778 49.9270125,4.26677778 L43.7292125,8.09404444 C43.128575,7.61884444 42.379025,7.33333333 41.5625,7.33333333 C39.5952875,7.33333333 38,8.97526667 38,11 C38,13.0247333 39.5952875,14.6666667 41.5625,14.6666667 C42.379025,14.6666667 43.128575,14.3814 43.7292125,13.9057111 L49.9270125,17.7329778 C49.895425,17.9290222 49.875,18.1282444 49.875,18.3333333 C49.875,20.3580667 51.4702875,22 53.4375,22 C55.4047125,22 57,20.3580667 57,18.3333333 C57,16.3086 55.4047125,14.6666667 53.4375,14.6666667 Z" id="share"></path>
            </g>
        </g>
    </g>
</svg>