<?xml version="1.0" encoding="UTF-8"?>
<svg width="20px" height="20px" viewBox="0 0 20 20" version="1.1" xmlns="http://www.w3.org/2000/svg" xmlns:xlink="http://www.w3.org/1999/xlink">
    <!-- Generator: Sketch 47.1 (45422) - http://www.bohemiancoding.com/sketch -->
    <title>menu_icon-2</title>
    <desc>Created with Sketch.</desc>
    <defs></defs>
    <g id="Page-1" stroke="none" stroke-width="1" fill="none" fill-rule="evenodd">
        <g id="Menu" transform="translate(-16.000000, -123.000000)" fill="#5F5F5F">
            <g id="視頻" transform="translate(0.000000, 103.000000)">
                <g id="Group-2" transform="translate(15.000000, 19.000000)">
                    <path d="M11,21 C5.4771525,21 1,16.5228475 1,11 C1,5.4771525 5.4771525,1 11,1 C16.5228475,1 21,5.4771525 21,11 C21,16.5228475 16.5228475,21 11,21 Z M14.7348085,12.7344509 L14.7348085,12.7344509 C14.9923467,12.5734894 15.2098458,12.3559904 15.3708072,12.0984521 C15.9562279,11.1617791 15.6714815,9.92787831 14.7348085,9.34245764 L14.7348085,9.34245764 L11.0599979,7.04570103 C10.7421347,6.84703653 10.3748394,6.74169764 10,6.74169764 C8.8954305,6.74169764 8,7.63712814 8,8.74169764 L8,13.3352109 C8,13.7100503 8.10533889,14.0773455 8.30400339,14.3952087 C8.88942406,15.3318818 10.1233248,15.6166281 11.0599979,15.0312075 L11.0599979,15.0312075 L14.7348085,12.7344509 Z" id="Combined-Shape"></path>
                </g>
            </g>
        </g>
    </g>
</svg>