<?xml version="1.0" encoding="UTF-8"?>
<svg width="22px" height="20px" viewBox="0 0 22 20" version="1.1" xmlns="http://www.w3.org/2000/svg" xmlns:xlink="http://www.w3.org/1999/xlink">
    <!-- Generator: Sketch 47.1 (45422) - http://www.bohemiancoding.com/sketch -->
    <title>menu_icon-3</title>
    <desc>Created with Sketch.</desc>
    <defs></defs>
    <g id="Page-1" stroke="none" stroke-width="1" fill="none" fill-rule="evenodd">
        <g id="Menu" transform="translate(-15.000000, -289.000000)" fill-rule="nonzero" fill="#5F5F5F">
            <g id="影評" transform="translate(0.000000, 269.000000)">
                <g id="Group-3" transform="translate(15.000000, 19.000000)">
                    <path d="M14.5516615,4.99491556 L2.15362266,5.02033775 C0.966043218,5.02033775 0,5.98638097 0,7.17396041 L0,14.851825 C0,16.0394044 0.966043218,17.0050844 2.15362266,17.0050844 L4.3580897,17.0050844 L4.3580897,20.6368259 C4.3580897,20.7868168 4.45033594,20.9215544 4.59052115,20.9756673 C4.63301253,20.9920102 4.67731977,21 4.72126385,21 C4.82149991,21 4.9199201,20.958235 4.99001271,20.8812421 L8.51425459,17.0043581 L14.5523879,16.9796622 C15.7399673,16.9796622 16.7060105,16.013619 16.7060105,14.8264028 L16.7060105,7.14853822 C16.7060105,5.96095878 15.7399673,4.99491556 14.5516615,4.99491556 Z M3.63174142,8.62665698 L8.35300527,8.62665698 C8.55384057,8.62665698 8.71617941,8.789359 8.71617941,8.98983112 C8.71617941,9.19030325 8.55384057,9.35300527 8.35300527,9.35300527 L3.63174142,9.35300527 C3.43090612,9.35300527 3.26856728,9.19030325 3.26856728,8.98983112 C3.26856728,8.789359 3.43090612,8.62665698 3.63174142,8.62665698 Z M13.0742691,13.711095 L3.63174142,13.711095 C3.43090612,13.711095 3.26856728,13.548393 3.26856728,13.3479208 C3.26856728,13.1474487 3.43090612,12.9847467 3.63174142,12.9847467 L13.0742691,12.9847467 C13.2751044,12.9847467 13.4374433,13.1474487 13.4374433,13.3479208 C13.4374433,13.548393 13.2751044,13.711095 13.0742691,13.711095 Z M13.0742691,11.5320501 L3.63174142,11.5320501 C3.43090612,11.5320501 3.26856728,11.3693481 3.26856728,11.168876 C3.26856728,10.9684038 3.43090612,10.8057018 3.63174142,10.8057018 L13.0742691,10.8057018 C13.2751044,10.8057018 13.4374433,10.9684038 13.4374433,11.168876 C13.4374433,11.3693481 13.2751044,11.5320501 13.0742691,11.5320501 Z M19.6375522,1.02542219 C20.8244053,1.02542219 21.7904485,1.99146541 21.7904485,3.17904485 L21.7904485,10.8572726 C21.7904485,12.0444888 20.8244053,13.0105321 19.6368259,13.0105321 L19.2482295,13.0105321 L19.2482295,16.6422735 C19.2482295,16.7922644 19.1559833,16.927002 19.0157981,16.9811149 C18.9733067,16.9974578 18.9289995,17.0054476 18.8850554,17.0054476 C18.7848193,17.0054476 18.6863991,16.9636826 18.6163065,16.8866897 L17.4323588,15.5843472 L17.4323588,14.8264028 L17.4323588,14.8006174 L17.4323588,7.14853822 C17.4323588,5.5603777 16.139822,4.26856728 14.5502088,4.26856728 L5.08443799,4.28817868 L5.08443799,3.15362266 C5.08443799,1.96604322 6.05048121,1 7.23806065,1 L19.6375522,1.02542219 Z" id="Combined-Shape"></path>
                </g>
            </g>
        </g>
    </g>
</svg>