<?xml version="1.0" encoding="UTF-8"?>
<svg width="22px" height="22px" viewBox="0 0 22 22" version="1.1" xmlns="http://www.w3.org/2000/svg" xmlns:xlink="http://www.w3.org/1999/xlink">
    <!-- Generator: Sketch 47.1 (45422) - http://www.bohemiancoding.com/sketch -->
    <title>menu_icon-9</title>
    <desc>Created with Sketch.</desc>
    <defs>
        <linearGradient x1="50%" y1="0%" x2="50%" y2="100%" id="linearGradient-1">
            <stop stop-color="#3DC0D1" offset="0%"></stop>
            <stop stop-color="#3C7AD2" offset="100%"></stop>
        </linearGradient>
    </defs>
    <g id="Page-1" stroke="none" stroke-width="1" fill="none" fill-rule="evenodd">
        <g id="Menu" transform="translate(-93.000000, -537.000000)" fill-rule="nonzero" fill="url(#linearGradient-1)">
            <g id="Group-7" transform="translate(15.000000, 537.000000)">
                <path d="M78,12.7122162 C78,11.9640399 78.6080571,11.3560053 79.3584712,11.3560053 L81.2571663,11.3560053 C81.8945854,11.3560053 82.4461112,11.8012946 82.5817323,12.4251515 L83.2711394,15.6077263 C83.4045002,16.2316059 83.9560259,16.6768725 84.5957053,16.6768725 L93.406555,16.6768725 C94.0439741,16.6768725 94.5954998,16.2316059 94.7311209,15.6077263 L95.4205281,12.4251515 C95.5539114,11.8012946 96.1054146,11.3560053 96.745094,11.3560053 L98.6437892,11.3560053 C99.3919881,11.3560053 100,11.9640173 100,12.7122162 L100,20.6460495 C100,21.3942258 99.3919881,22.0022604 98.6663927,22.0022604 L79.3788143,22.0022604 C78.6080345,22.0022604 78,21.3942258 78,20.6460495 L78,12.7122162 Z M88.9084784,15.11723 L88.9061954,15.11723 C88.4812494,15.0969095 88.0924689,14.9386849 87.7850611,14.6855029 C87.7850611,14.6855029 87.7850611,14.6855029 87.7827782,14.6832426 C87.7714764,14.6742012 87.7601747,14.6651372 87.7511559,14.6561184 C87.7488729,14.6538354 87.7488729,14.6538354 87.7466352,14.6515977 C87.7375938,14.6425563 87.726292,14.6335148 87.7172506,14.6267338 C87.7149676,14.6244508 87.7127299,14.6222131 87.7104695,14.6199301 C87.7014281,14.6109113 87.6923641,14.6018473 87.6810624,14.5928285 C87.678802,14.5905456 87.6765643,14.5883078 87.6742813,14.5860249 C87.6629796,14.5747231 87.6516778,14.5634214 87.640376,14.5521196 L81.7453796,8.65938354 C81.3701613,8.28416521 81.1825521,7.79140861 81.1825521,7.30091236 C81.1825521,6.80815576 81.3701613,6.31765951 81.7453796,5.94244118 C82.4958163,5.19200452 83.7141457,5.19200452 84.4645823,5.94244118 L87.0775711,8.55540738 L87.0775711,1.92355903 C87.0775711,0.861193877 87.938765,0 89.0011302,0 C90.0634953,0 90.9246892,0.861193877 90.9246892,1.92355903 L90.9246892,8.55542998 L93.537678,5.94246378 C94.2881147,5.19202712 95.5064441,5.19202712 96.2568807,5.94246378 C97.0073174,6.69290044 97.0073174,7.91122984 96.2568807,8.6616665 L90.3618843,14.5544025 C90.3505826,14.5657043 90.3392808,14.5770061 90.327979,14.5883078 C90.3256961,14.5905682 90.3234583,14.5928285 90.321198,14.5950889 C90.3121566,14.6041303 90.3030926,14.6131717 90.2917908,14.6222131 C90.2895305,14.6244734 90.2872927,14.6267338 90.2850098,14.6289941 C90.275991,14.6380355 90.2646892,14.647077 90.2556252,14.653858 C90.2533648,14.656141 90.2533648,14.656141 90.2511045,14.6583787 C90.2398027,14.6674201 90.2307839,14.6764615 90.2194822,14.6855029 C90.2194822,14.6855029 90.2194822,14.6855029 90.2171992,14.6877633 C89.9097914,14.9409226 89.521011,15.0991472 89.0960649,15.119513 L89.093782,15.119513 C89.0779821,15.119513 89.0643974,15.1217733 89.048575,15.1217733 C89.0327751,15.1217733 89.0169526,15.1217733 89.0011076,15.1217733 C88.9852625,15.1217733 88.9694627,15.1217733 88.9536402,15.1217733 C88.9378629,15.11723 88.9242782,15.11723 88.9084784,15.11723 Z" id="down"></path>
            </g>
        </g>
    </g>
</svg>