<?xml version="1.0" encoding="UTF-8"?>
<svg width="22px" height="17px" viewBox="0 0 22 17" version="1.1" xmlns="http://www.w3.org/2000/svg" xmlns:xlink="http://www.w3.org/1999/xlink">
    <!-- Generator: Sketch 47.1 (45422) - http://www.bohemiancoding.com/sketch -->
    <title>menu_icon-4</title>
    <desc>Created with Sketch.</desc>
    <defs></defs>
    <g id="Page-1" stroke="none" stroke-width="1" fill="none" fill-rule="evenodd">
        <g id="Menu" transform="translate(-15.000000, -350.000000)" fill-rule="nonzero" fill="#5F5F5F">
            <g id="漫畫小說" transform="translate(0.000000, 329.000000)">
                <g id="Group-4" transform="translate(15.000000, 19.000000)">
                    <path d="M3.36534466,2.00007492 C5.20194344,2.00442037 8.54239913,2.43461999 10.2807013,5.2660557 C10.3514423,5.3814349 10.3889239,5.52086393 10.3889239,5.66928355 L10.3889239,18.1647018 C8.27099081,15.9229737 5.2009064,15.5366782 3.36845578,15.5322578 C2.93378765,15.531134 2.58023091,15.1740578 2.58023091,14.7362162 L2.58023091,2.79634129 C2.58023091,2.582665 2.66252748,2.38195013 2.81193539,2.23120794 C2.95971367,2.08211403 3.15541803,2.00007492 3.3634928,2.00007492 C3.3640854,2.00007492 3.36475207,2.00007492 3.36534466,2.00007492 Z M19.4198432,14.7362162 C19.4198432,15.1739829 19.0662864,15.5310591 18.6316924,15.5321829 C16.7992417,15.5366032 13.7291573,15.9228988 11.6112243,18.1646269 L11.6112243,5.66928355 C11.6112243,5.52086393 11.6486318,5.3814349 11.7193728,5.2660557 C13.457749,2.43461999 16.7982047,2.00442037 18.6347294,2 C18.635322,2 18.6359887,2 18.6366553,2 C18.8445079,2 19.0403604,2.08203911 19.1881387,2.23113302 C19.3375466,2.38187521 19.4198432,2.58259007 19.4198432,2.79626637 L19.4198432,14.7362162 Z M21.2128862,4.75359221 C21.6468877,4.75359221 22.0000741,5.1107433 22,5.54970874 L22,18.2039607 C22,18.4473809 21.8921478,18.6741685 21.7041471,18.8258846 C21.5154798,18.9779754 21.2721457,19.0340167 21.0366634,18.9797735 C19.1507311,18.5450786 15.8415348,18.0397327 12.7024131,18.8171188 C14.5174563,17.0796128 17.0802797,16.7722097 18.6345813,16.7684636 C19.7415479,16.7656915 20.6420695,15.8541208 20.6420695,14.7362162 L20.6420695,4.75359221 L21.2128862,4.75359221 Z M1.3579305,14.7362162 C1.3579305,15.8541208 2.25852612,16.7656915 3.36541874,16.7683887 C4.91972027,16.7721347 7.48254371,17.079463 9.29751278,18.816894 C6.15853925,18.0395079 2.84926885,18.5447789 0.963336576,18.9795488 C0.727483931,19.0339418 0.484372001,18.9776757 0.295852848,18.8256599 C0.107852215,18.6739437 0,18.447231 0,18.203736 L0,5.54970874 C0,5.1107433 0.353186374,4.75359221 0.787113761,4.75359221 L1.3579305,4.75359221 L1.3579305,14.7362162 Z" id="Combined-Shape"></path>
                </g>
            </g>
        </g>
    </g>
</svg>