<?xml version="1.0" encoding="UTF-8"?>
<svg width="20px" height="20px" viewBox="0 0 20 20" version="1.1" xmlns="http://www.w3.org/2000/svg" xmlns:xlink="http://www.w3.org/1999/xlink">
    <!-- Generator: Sketch 47.1 (45422) - http://www.bohemiancoding.com/sketch -->
    <title>menu_icon-6</title>
    <desc>Created with Sketch.</desc>
    <defs>
        <linearGradient x1="50%" y1="0%" x2="50%" y2="100%" id="linearGradient-1">
            <stop stop-color="#3DC0D1" offset="0%"></stop>
            <stop stop-color="#3C7AD2" offset="100%"></stop>
        </linearGradient>
        <path d="M20.6673644,18.2774219 C20.7207094,18.2220703 20.773973,18.1664063 20.8163724,18.100625 C21.0404947,17.7527344 21.0607585,17.3264453 20.8700022,16.9602344 L20.2763303,15.8203906 C20.0838244,15.4507422 19.753012,15.1755078 19.3446845,15.0450391 L16.5515782,14.1506641 C16.1045543,14.0072656 15.6171248,14.0698437 15.2171796,14.3004297 L14.7524146,12.9619141 C15.0780186,12.3883984 15.2724777,11.7382422 15.2724777,11.0390625 C15.2724777,8.73429687 15.2724777,9.19203125 15.2724777,6.8984375 L6.72750849,6.8984375 C6.72750849,9.18976562 6.72750849,8.73195312 6.72750849,11.0390625 C6.72750849,11.7382422 6.92196758,12.3883984 7.24757159,12.9619531 L6.78272527,14.300625 C6.38225104,14.0702344 5.89543194,14.0089453 5.44779762,14.1512891 L2.65530168,15.0450781 C2.24701491,15.1755469 1.91620253,15.4507812 1.72365589,15.8204297 L1.12998398,16.9608203 C0.939227716,17.3264453 0.959532191,17.7527344 1.18361384,18.1006641 C1.22613523,18.1665234 1.27948025,18.2223047 1.33282528,18.2776562 L1.19142638,18.6859766 C0.795387401,19.8228906 1.67368817,21 2.92768275,21 L19.0723035,21 C20.3260946,21 21.2042326,19.8230469 20.8092109,18.6865625 L20.6673644,18.2774219 Z M8.15748875,14.0457031 C9.03066253,14.8034375 9.93821964,15.140625 10.9999931,15.140625 C12.0462229,15.140625 12.9600463,14.8116016 13.8424975,14.0457031 L14.1691187,14.9864844 L11.8617329,16.5289453 C11.6037155,16.3953906 11.3131459,16.3125 10.9999931,16.3125 C10.6868403,16.3125 10.3962707,16.3953906 10.1382533,16.5289453 L7.83086747,14.9864844 L8.15748875,14.0457031 Z M11.610348,18.0703125 C11.610348,18.3935937 11.3367463,18.65625 10.9999931,18.65625 C10.6632399,18.65625 10.3896382,18.3935937 10.3896382,18.0703125 C10.3896382,17.7470312 10.6632399,17.484375 10.9999931,17.484375 C11.3367463,17.484375 11.610348,17.7470312 11.610348,18.0703125 Z M19.0723035,19.828125 L10.9999931,19.828125 L2.92768275,19.828125 C2.51015927,19.828125 2.21710752,19.4363672 2.34951385,19.0562109 L2.4881865,18.65625 L9.28135565,18.65625 C9.53416467,19.3367969 10.205311,19.828125 10.9999931,19.828125 C11.7946752,19.828125 12.4658215,19.3367969 12.7186306,18.65625 L19.5119625,18.65625 L19.6510827,19.0567969 C19.7819835,19.4350391 19.4908849,19.828125 19.0723035,19.828125 Z M14.6621228,1 C14.9994863,1 15.2724777,1.26207031 15.2724777,1.5859375 C15.2724777,3.9303125 15.2724777,2.02316406 15.2724777,5.7265625 L6.72750849,5.7265625 C6.72750849,2.0246875 6.72750849,3.92960937 6.72750849,1.5859375 C6.72750849,1.26207031 7.00049991,1 7.33786344,1 C7.67522696,1 7.94821838,1.26207031 7.94821838,1.5859375 L7.94821838,2.395625 L9.65888053,3.21671875 L10.3896382,2.51519531 L10.3896382,1.5859375 C10.3896382,1.26207031 10.6626296,1 10.9999931,1 C11.3373566,1 11.610348,1.26207031 11.610348,1.5859375 L11.610348,2.51519531 L12.3411057,3.21675781 L14.0517678,2.395625 L14.0517678,1.5859375 C14.0517678,1.26207031 14.3247593,1 14.6621228,1 Z" id="path-2"></path>
    </defs>
    <g id="Page-1" stroke="none" stroke-width="1" fill="none" fill-rule="evenodd">
        <g id="Menu" transform="translate(-16.000000, -468.000000)" fill-rule="nonzero">
            <g id="會員中心" transform="translate(0.000000, 449.000000)">
                <g id="Group-6" transform="translate(15.000000, 18.000000)">
                    <g id="King">
                        <use fill="#5F5F5F" fill-rule="evenodd" xlink:href="#path-2"></use>
                        <use fill="url(#linearGradient-1)" fill-rule="evenodd" xlink:href="#path-2"></use>
                    </g>
                </g>
            </g>
        </g>
    </g>
</svg>