<?xml version="1.0" encoding="UTF-8"?>
<svg width="22px" height="16px" viewBox="0 0 22 16" version="1.1" xmlns="http://www.w3.org/2000/svg" xmlns:xlink="http://www.w3.org/1999/xlink">
    <!-- Generator: Sketch 47.1 (45422) - http://www.bohemiancoding.com/sketch -->
    <title>menu_icon-5</title>
    <desc>Created with Sketch.</desc>
    <defs>
        <linearGradient x1="50%" y1="0%" x2="50%" y2="100%" id="linearGradient-1">
            <stop stop-color="#3DC0D1" offset="0%"></stop>
            <stop stop-color="#3C7AD2" offset="100%"></stop>
        </linearGradient>
        <path d="M20.1823359,6.24921094 C19.1800469,6.24921094 18.3646719,7.06462891 18.3646719,8.066875 C18.3646719,8.2311875 18.3869727,8.39030078 18.4280078,8.54176562 L17.166918,9.16244922 L16.0348203,6.40252344 L13.1954453,8.04564844 L11.9912031,6.32526562 C12.4754609,5.99840234 12.7945469,5.44462109 12.7945469,4.81766406 C12.7945469,3.81541797 11.9791289,3 10.9768828,3 C9.97459375,3 9.15921875,3.81541797 9.15921875,4.81766406 C9.15921875,5.44075391 9.47448047,5.99148437 9.95375391,6.31907812 L8.76227344,8.02115625 L5.96517969,6.40248047 L4.82311328,9.18672656 L3.51046094,8.54064844 C3.59076953,8.3356875 3.63532813,8.1129375 3.63532813,7.879875 C3.63532813,6.87762891 2.81991016,6.06221094 1.81766406,6.06221094 C0.815417969,6.06225391 0,6.87767187 0,7.87991797 C0,8.88216406 0.815417969,9.69758203 1.81766406,9.69758203 C1.96466016,9.69758203 2.10748828,9.67957812 2.24442969,9.64649219 L4.44524609,15.8352812 L4.44524609,18.7225234 L17.4881953,18.7225234 L17.4881953,15.8553477 L19.6408008,9.802125 C19.8119023,9.85562109 19.9937891,9.88453906 20.1823359,9.88453906 C21.184582,9.88453906 22,9.06912109 22,8.066875 C22,7.06462891 21.184582,6.24921094 20.1823359,6.24921094 Z M1.81766406,8.40851953 C1.52620703,8.40851953 1.2890625,8.171375 1.2890625,7.87991797 C1.2890625,7.58846094 1.52620703,7.35131641 1.81766406,7.35131641 C2.10916406,7.35131641 2.34626563,7.58841797 2.34626563,7.87991797 C2.34626563,8.17141797 2.10912109,8.40851953 1.81766406,8.40851953 Z M15.4025352,8.25778516 L16.0076641,9.73303125 L14.7945703,10.330125 L13.9374297,9.10564453 L15.4025352,8.25778516 Z M10.9768828,4.28910547 C11.2683398,4.28910547 11.5054844,4.52625 11.5054844,4.81770703 C11.5054844,5.10916406 11.2683398,5.34630859 10.9768828,5.34630859 C10.6853828,5.34630859 10.4482812,5.10916406 10.4482812,4.81770703 C10.4482812,4.52620703 10.6853828,4.28910547 10.9768828,4.28910547 Z M6.59742188,8.25778516 L8.02028906,9.08115234 L7.14604687,10.330082 L5.98232422,9.75730859 L6.59742188,8.25778516 Z M16.1991758,17.433418 L16.1991328,17.433418 L5.73435156,17.433418 L5.73435156,16.3686094 L16.1991758,16.3686094 L16.1991758,17.433418 Z M16.3959727,15.0795469 L5.5446875,15.0795469 L3.77695313,10.1085781 L7.56838672,11.974668 L10.9703516,7.11473047 L14.3723164,11.974668 L18.163707,10.1085781 L16.3959727,15.0795469 Z M20.1823359,8.59547656 C19.8908359,8.59547656 19.6537344,8.35833203 19.6537344,8.066875 C19.6537344,7.77541797 19.8908789,7.53827344 20.1823359,7.53827344 C20.473793,7.53827344 20.7109375,7.77541797 20.7109375,8.066875 C20.7109375,8.35833203 20.473793,8.59547656 20.1823359,8.59547656 Z" id="path-2"></path>
    </defs>
    <g id="Page-1" stroke="none" stroke-width="1" fill="none" fill-rule="evenodd">
        <g id="Menu" transform="translate(-15.000000, -410.000000)" fill-rule="nonzero">
            <g id="加入VIP" transform="translate(0.000000, 389.000000)">
                <g id="Group-5" transform="translate(15.000000, 18.000000)">
                    <g id="Shape">
                        <use fill="#5F5F5F" fill-rule="evenodd" xlink:href="#path-2"></use>
                        <use fill="url(#linearGradient-1)" fill-rule="evenodd" xlink:href="#path-2"></use>
                    </g>
                </g>
            </g>
        </g>
    </g>
</svg>