<?xml version="1.0" encoding="UTF-8"?>
<svg width="22px" height="22px" viewBox="0 0 22 22" version="1.1" xmlns="http://www.w3.org/2000/svg" xmlns:xlink="http://www.w3.org/1999/xlink">
    <!-- Generator: Sketch 47.1 (45422) - http://www.bohemiancoding.com/sketch -->
    <title>menu_icon-7</title>
    <desc>Created with Sketch.</desc>
    <defs>
        <linearGradient x1="50%" y1="0%" x2="50%" y2="100%" id="linearGradient-1">
            <stop stop-color="#3DC0D1" offset="0%"></stop>
            <stop stop-color="#3C7AD2" offset="100%"></stop>
        </linearGradient>
    </defs>
    <g id="Page-1" stroke="none" stroke-width="1" fill="none" fill-rule="evenodd">
        <g id="Menu" transform="translate(-15.000000, -537.000000)" fill-rule="nonzero" fill="url(#linearGradient-1)">
            <g id="Group-7" transform="translate(15.000000, 537.000000)">
                <path d="M1.32945053,11.6015749 L7.76216062,11.6015749 L7.76216062,22 L3.25925926,22 C2.19514024,22 1.32945053,21.1326609 1.32945053,20.0664185 L1.32945053,11.6015749 Z M14.1949137,11.6015749 L20.6276238,11.6015749 L20.6276238,20.0664185 C20.6276238,21.1326179 19.761977,22 18.697815,22 L14.1949137,22 L14.1949137,11.6015749 Z M16.1247224,2.84217094e-14 C17.8981252,2.84217094e-14 19.3410989,1.44575168 19.3410989,3.22262144 C19.3410989,3.95085734 19.0896033,4.61593497 18.681401,5.15620291 L15.5269853,5.15620291 C16.1398044,4.5850662 16.3818899,4.14868435 16.7001588,3.51090211 C16.8590999,3.19239846 16.7303228,2.80531192 16.4124406,2.64606009 C16.0958045,2.48745406 15.7088717,2.61648291 15.549286,2.93434077 C14.9683067,4.09857104 14.1701637,4.86830971 12.8059516,5.08094685 C12.8653342,4.90012564 12.9083459,4.7125021 12.9083459,4.51170446 C12.9083459,4.01384339 12.7143853,3.563943 12.4048391,3.22085628 C12.6976705,2.77771516 12.9788575,2.29970137 13.2676928,1.74160962 C13.8236644,0.667187213 14.918592,2.84217094e-14 16.1247224,2.84217094e-14 Z M9.04872842,11.6015749 L12.9084318,11.6015749 L12.9084318,22 L11.621864,22 L11.621864,20.0664185 C11.621864,19.7101577 11.3341458,19.421877 10.9785801,19.421877 C10.6230144,19.421877 10.3352962,19.7101577 10.3352962,20.0664185 L10.3352962,22 L9.04872842,22 L9.04872842,11.6015749 Z M10.9785372,3.867206 C11.3334583,3.867206 11.6218211,4.15608941 11.6218211,4.51174751 C11.6218211,4.86736255 11.3334583,5.15628902 10.9785372,5.15628902 C10.623616,5.15628902 10.3352533,4.86736255 10.3352533,4.51174751 C10.3352533,4.15613246 10.623616,3.867206 10.9785372,3.867206 Z M9.55223525,3.22085628 C9.24268898,3.563943 9.04872842,4.01384339 9.04872842,4.51174751 C9.04872842,4.71254516 9.09174006,4.90016869 9.15112275,5.0809899 C7.78691057,4.86826666 6.98881057,4.09857104 6.40778827,2.93438382 C6.24820264,2.61652596 5.86311745,2.48749711 5.5446337,2.64610315 C5.22675151,2.80535497 5.09797442,3.19244152 5.25691551,3.51094516 C5.57518442,4.1487274 5.81726989,4.58510926 6.430089,5.15624596 L3.27567329,5.15624596 C2.86751393,4.61597802 2.61597536,3.95090039 2.61597536,3.22266449 C2.61597536,1.44575168 4.0589491,2.84217094e-14 5.83235189,2.84217094e-14 C7.03848235,2.84217094e-14 8.1334099,0.667187213 8.68938147,1.74160962 C8.97821684,2.29970137 9.25940379,2.77771516 9.55223525,3.22085628 Z M11.6218211,6.44532898 L12.9083459,6.44532898 L12.9083459,10.312535 L9.04868545,10.312535 L9.04868545,6.44532898 L10.3352533,6.44532898 L10.3352533,7.08987049 C10.3352533,7.44613133 10.6229714,7.734412 10.9785372,7.734412 C11.3341029,7.734412 11.6218211,7.44613133 11.6218211,7.08987049 L11.6218211,6.44532898 Z M20.7133892,6.44532898 C21.4239621,6.44532898 21.999957,7.02240696 22,7.73436895 L22,9.02345196 C22,9.73532785 21.424005,10.312535 20.7134322,10.312535 L14.1949137,10.312535 L14.1949137,6.44532898 L20.7133892,6.44532898 Z M1.2865678,6.44532898 L7.76220359,6.44532898 L7.76220359,10.312535 L1.2865678,10.312535 C0.575994969,10.312535 0,9.73532785 0,9.02345196 L0,7.73436895 C0,7.02240696 0.575994969,6.44532898 1.2865678,6.44532898 Z" id="gift"></path>
            </g>
        </g>
    </g>
</svg>