<?xml version="1.0" encoding="UTF-8"?>
<svg width="13px" height="12px" viewBox="0 0 13 12" version="1.1" xmlns="http://www.w3.org/2000/svg" xmlns:xlink="http://www.w3.org/1999/xlink">
    <!-- Generator: Sketch 47.1 (45422) - http://www.bohemiancoding.com/sketch -->
    <title>play_unlike</title>
    <desc>Created with Sketch.</desc>
    <defs></defs>
    <g id="Page-1" stroke="none" stroke-width="1" fill="none" fill-rule="evenodd">
        <g id="播放介面" transform="translate(-168.000000, -375.000000)" fill="#FFFFFF">
            <g transform="translate(0.000000, 100.000000)" id="Group-2">
                <g transform="translate(167.000000, 271.000000)">
                    <path d="M8.59242514,6.29329108 L8.59242514,5.71616882 C8.59242514,3.99449135 7.19672978,2.59879599 5.4750523,2.59879599 C3.75337482,2.59879599 2.35767946,3.99449135 2.35767946,5.71616882 L2.35767946,5.71616882 L2.35767946,9.87266594 L2.35767946,12.9900388 L9.63154942,12.9900388 C11.3532269,12.9900388 12.7489223,11.5943434 12.7489223,9.87266594 L12.7489223,9.87266594 L12.7489223,9.87266594 C12.7489223,8.24285508 11.4981983,6.90516644 9.90420239,6.76705189 L7.36981722,8.00038311 L7.82344579,9.28123581 C7.93385373,9.59298052 7.71660896,9.92410967 7.38668102,9.94696207 L5.49787849,10.0777896 L5.80279811,11.3692139 C5.86738508,11.6427587 5.69388329,11.9157782 5.41880076,11.9734656 L3.59458265,12.3560214 C3.32431917,12.4126982 3.05928169,12.239552 3.00260488,11.9692885 C2.94592807,11.699025 3.11907427,11.4339876 3.38933776,11.3773107 L4.71173548,11.0999914 L4.3893431,9.73456489 C4.31845754,9.43434366 4.53367443,9.14217913 4.84141327,9.12086365 L6.66114545,8.99482022 L6.27806716,7.91317125 C6.19313157,7.67334955 6.30182536,7.40798676 6.53059317,7.29665937 L8.59242514,6.29329108 Z" id="Like" transform="translate(7.553301, 7.794417) rotate(-45.000000) translate(-7.553301, -7.794417) "></path>
                </g>
            </g>
        </g>
    </g>
</svg>