<?xml version="1.0" encoding="UTF-8"?>
<svg width="12px" height="12px" viewBox="0 0 12 12" version="1.1" xmlns="http://www.w3.org/2000/svg" xmlns:xlink="http://www.w3.org/1999/xlink">
    <!-- Generator: Sketch 47.1 (45422) - http://www.bohemiancoding.com/sketch -->
    <title>right-icon</title>
    <desc>Created with Sketch.</desc>
    <defs></defs>
    <g id="Page-1" stroke="none" stroke-width="1" fill="none" fill-rule="evenodd">
        <g id="Menu" transform="translate(-205.000000, -552.000000)" fill="#B7E370">
            <path d="M211,564 C207.686292,564 205,561.313708 205,558 C205,554.686292 207.686292,552 211,552 C214.313708,552 217,554.686292 217,558 C217,561.313708 214.313708,564 211,564 Z M207.174535,558.022217 L207.174535,558.022217 C206.818044,558.421122 206.838689,559.029955 207.221383,559.403795 L207.221383,559.403795 L209.162884,561.300375 C209.163171,561.300656 209.163458,561.300936 209.163745,561.301216 C209.559277,561.686667 210.192389,561.678496 210.577841,561.282964 L210.577841,561.282964 L214.7489,557.002823 C215.10032,556.642212 215.125537,556.075423 214.80753,555.685028 C214.790422,555.664026 214.772256,555.643909 214.753102,555.624755 C214.44152,555.313174 213.936347,555.313174 213.624765,555.624755 L213.624765,555.624755 L209.879079,559.370441 L208.489187,557.984421 C208.477496,557.972763 208.465488,557.961426 208.453177,557.950424 C208.080265,557.617162 207.507797,557.649305 207.174535,558.022217 L207.174535,558.022217 Z" id="right-icon"></path>
        </g>
    </g>
</svg>