<?xml version="1.0" encoding="UTF-8"?>
<svg width="15px" height="15px" viewBox="0 0 15 15" version="1.1" xmlns="http://www.w3.org/2000/svg" xmlns:xlink="http://www.w3.org/1999/xlink">
    <!-- Generator: Sketch 47.1 (45422) - http://www.bohemiancoding.com/sketch -->
    <title>搜尋icon</title>
    <desc>Created with Sketch.</desc>
    <defs></defs>
    <g id="Symbols" stroke="none" stroke-width="1" fill="none" fill-rule="evenodd">
        <g id="搜尋框" transform="translate(-15.000000, -7.000000)" fill="#B4B4BA">
            <g transform="translate(5.000000, 0.000000)" id="搜尋icon">
                <path d="M21.5888915,17.1939383 L25,20.6050467 L23.6050467,22 L20.1939383,18.5888915 C19.1336245,19.3648435 17.8260487,19.822952 16.411476,19.822952 C12.8705156,19.822952 10,16.9524364 10,13.411476 C10,9.87051558 12.8705156,7 16.411476,7 C19.9524364,7 22.822952,9.87051558 22.822952,13.411476 C22.822952,14.8260487 22.3648435,16.1336245 21.5888915,17.1939383 Z M16.411476,17.8501901 C18.8629101,17.8501901 20.8501901,15.8629101 20.8501901,13.411476 C20.8501901,10.9600419 18.8629101,8.97276184 16.411476,8.97276184 C13.9600419,8.97276184 11.9727618,10.9600419 11.9727618,13.411476 C11.9727618,15.8629101 13.9600419,17.8501901 16.411476,17.8501901 Z"></path>
            </g>
        </g>
    </g>
</svg>