<?xml version="1.0" encoding="UTF-8"?>
<svg width="20px" height="20px" viewBox="0 0 20 20" version="1.1" xmlns="http://www.w3.org/2000/svg" xmlns:xlink="http://www.w3.org/1999/xlink">
    <!-- Generator: Sketch 47.1 (45422) - http://www.bohemiancoding.com/sketch -->
    <title>Tick</title>
    <desc>Created with Sketch.</desc>
    <defs></defs>
    <g id="Page-1" stroke="none" stroke-width="1" fill="none" fill-rule="evenodd">
        <g id="註冊用戶" transform="translate(-20.000000, -277.000000)" fill-rule="nonzero" fill="#3C7AD2">
            <path d="M30,277 C24.486033,277 20,281.485905 20,286.999948 C20,292.51399 24.486033,297 30,297 C35.513967,297 40,292.51399 40,286.999948 C40,281.485905 35.5140714,277 30,277 Z M35.7421765,285.310873 L29.4596851,291.593331 C29.1925537,291.860461 28.8374568,292.007487 28.4597164,292.007487 C28.0819759,292.007487 27.7268791,291.860461 27.4597477,291.593331 L24.2578235,288.391424 C23.9906921,288.124294 23.8435612,287.769199 23.8435612,287.39146 C23.8435612,287.013617 23.9906921,286.658522 24.2578235,286.391392 C24.5248505,286.124262 24.8799474,285.977132 25.2577922,285.977132 C25.6355326,285.977132 25.9907339,286.124262 26.2577609,286.391497 L28.459612,288.593232 L33.7420304,283.310841 C34.0091618,283.043711 34.3642587,282.896685 34.7419991,282.896685 C35.1197395,282.896685 35.4748364,283.043711 35.7419678,283.310841 C36.2935523,283.862423 36.2935523,284.7595 35.7421765,285.310873 Z" id="Tick"></path>
        </g>
    </g>
</svg>