<?xml version="1.0" encoding="UTF-8"?>
<svg width="18px" height="18px" viewBox="0 0 18 18" version="1.1" xmlns="http://www.w3.org/2000/svg" xmlns:xlink="http://www.w3.org/1999/xlink">
    <!-- Generator: Sketch 47.1 (45422) - http://www.bohemiancoding.com/sketch -->
    <title>tip-icon-2</title>
    <desc>Created with Sketch.</desc>
    <defs></defs>
    <g id="Page-1" stroke="none" stroke-width="1" fill="none" fill-rule="evenodd">
        <g id="index" transform="translate(-141.000000, -265.000000)">
            <g id="Top">
                <g id="小特點" transform="translate(35.000000, 265.000000)">
                    <g id="tip-icon-2" transform="translate(107.000000, 1.000000)">
                        <circle id="Oval" stroke="#FFFFFF" cx="8" cy="8" r="8"></circle>
                        <path d="M6.483,11 L6.483,8.336 L4.998,8.336 L4.998,11 L3.567,11 L3.567,4.628 L4.998,4.628 L4.998,7.049 L6.483,7.049 L6.483,4.628 L7.914,4.628 L7.914,11 L6.483,11 Z M13.485,7.832 C13.485,8.3120024 13.4325005,8.74699805 13.3275,9.137 C13.2224995,9.52700195 13.0620011,9.85999862 12.846,10.136 C12.6299989,10.4120014 12.3555017,10.6249993 12.0225,10.775 C11.6894983,10.9250007 11.2950023,11 10.839,11 L9.048,11 L9.048,4.628 L10.839,4.628 C11.2950023,4.628 11.6894983,4.70299925 12.0225,4.853 C12.3555017,5.00300075 12.6299989,5.2174986 12.846,5.4965 C13.0620011,5.77550139 13.2224995,6.11149803 13.3275,6.5045 C13.4325005,6.89750196 13.485,7.33999754 13.485,7.832 Z M12.036,7.832 C12.036,7.18999679 11.9265011,6.70550164 11.7075,6.3785 C11.4884989,6.05149836 11.2050017,5.888 10.857,5.888 L10.506,5.888 L10.506,9.74 L10.857,9.74 C11.2050017,9.74 11.4884989,9.57650163 11.7075,9.2495 C11.9265011,8.92249836 12.036,8.45000309 12.036,7.832 Z" id="HD" fill="#FFFFFF"></path>
                    </g>
                </g>
            </g>
        </g>
    </g>
</svg>