<?xml version="1.0" encoding="UTF-8"?>
<svg width="65px" height="58px" viewBox="0 0 65 58" version="1.1" xmlns="http://www.w3.org/2000/svg" xmlns:xlink="http://www.w3.org/1999/xlink">
    <!-- Generator: Sketch 47.1 (45422) - http://www.bohemiancoding.com/sketch -->
    <title>Shape</title>
    <desc>Created with Sketch.</desc>
    <defs></defs>
    <g id="Page-1" stroke="none" stroke-width="1" fill="none" fill-rule="evenodd" fill-opacity="0.9">
        <g id="播放介面" transform="translate(-155.000000, -149.000000)" fill="#FF0026">
            <path d="M217.942751,194.021939 L194.402395,153.846398 L194.402395,153.846398 C192.16875,150.03431 187.267715,148.75473 183.455628,150.988375 C182.27403,151.680718 181.289948,152.6648 180.597605,153.846398 L157.057249,194.021939 L157.057249,194.021939 C154.823604,197.834026 156.103185,202.735061 159.915272,204.968706 C161.141918,205.687443 162.53794,206.066311 163.959644,206.066311 L211.040356,206.066311 L211.040356,206.066311 C215.458634,206.066311 219.040356,202.484589 219.040356,198.066311 C219.040356,196.644606 218.661488,195.248584 217.942751,194.021939 Z M184,193.066311 L184,190.066311 L184,190.066311 C184,188.961741 184.895431,188.066311 186,188.066311 L189,188.066311 L189,188.066311 C190.104569,188.066311 191,188.961741 191,190.066311 L191,193.066311 L191,193.066311 C191,194.17088 190.104569,195.066311 189,195.066311 L186,195.066311 L186,195.066311 C184.895431,195.066311 184,194.17088 184,193.066311 Z M184,181.066311 L184,168.066311 L184,168.066311 C184,166.961741 184.895431,166.066311 186,166.066311 L189,166.066311 L189,166.066311 C190.104569,166.066311 191,166.961741 191,168.066311 L191,181.066311 L191,181.066311 C191,182.17088 190.104569,183.066311 189,183.066311 L186,183.066311 L186,183.066311 C184.895431,183.066311 184,182.17088 184,181.066311 Z" id="Shape"></path>
        </g>
    </g>
</svg>